# xmcd
#
# Track frame offsets:
#	150
#	5348
#	30448
#	53822
#	72764
#	86248
#	109063
#	134633
#
# Disc length: 1921 seconds
#
# Revision: 1
# Processed by: cddbd v1.4PL0 Copyright (c) Steve Scherf et al.
# Submitted via: audiograbber 1.81.02
#
DISCID=65077f08
DTITLE=Eazy E  -  It's on (Dr. Dre) 187um Killa    
DYEAR=1994
DGENRE=R&B
TTITLE0=Exxtra Special Thankz 
TTITLE1=Real Muthaphuckkin G's - Eazy-E 
TTITLE2=Any Last Werdz - Eazy-E
TTITLE3=Stilla Nigga 
TTITLE4=Gimmie That Nutt - Eazy-E
TTITLE5=It's On - Eazy-E
TTITLE6=Boyz-N-The Hood [G-Mix]
TTITLE7=Down 2 Tha Last Roach 
EXTD=
EXTT0=
EXTT1=
EXTT2=
EXTT3=
EXTT4=
EXTT5=
EXTT6=
EXTT7=
PLAYORDER=
